<mxfile host="www.draw.io" modified="2019-12-10T09:41:38.077Z" agent="Mozilla/5.0 (Windows NT 6.1; Win64; x64) AppleWebKit/537.36 (KHTML, like Gecko) Chrome/77.0.3865.90 Safari/537.36" etag="VgqinB2kHqRkVU1hHhZA" version="12.3.9" type="github" pages="1">
  <diagram id="WnAKHo4Y28c4Se3l6WRv" name="第 1 页">
    <mxGraphModel dx="854" dy="478" grid="1" gridSize="10" guides="1" tooltips="1" connect="1" arrows="1" fold="1" page="1" pageScale="1" pageWidth="827" pageHeight="1169" math="0" shadow="0">
      <root>
        <mxCell id="0"/>
        <mxCell id="1" parent="0"/>
        <mxCell id="71ZueDIA5eY5wavkLqYh-5" value="" style="rounded=0;whiteSpace=wrap;html=1;fontSize=14;fillColor=#FFFFFF;strokeColor=#4D4D4D;dashed=1;" parent="1" vertex="1">
          <mxGeometry x="650" y="120" width="190" height="780" as="geometry"/>
        </mxCell>
        <mxCell id="Ra1Ot_p0R3nydMWMHYjl-52" value="" style="rounded=0;whiteSpace=wrap;html=1;fontSize=14;fillColor=#FFFFFF;strokeColor=#4D4D4D;dashed=1;" parent="1" vertex="1">
          <mxGeometry x="80" y="120" width="190" height="780" as="geometry"/>
        </mxCell>
        <mxCell id="Ra1Ot_p0R3nydMWMHYjl-53" value="" style="rounded=0;whiteSpace=wrap;html=1;fontSize=14;fillColor=#FFFFFF;strokeColor=#4D4D4D;dashed=1;shadow=0;glass=0;" parent="1" vertex="1">
          <mxGeometry x="270" y="120" width="190" height="780" as="geometry"/>
        </mxCell>
        <mxCell id="Ra1Ot_p0R3nydMWMHYjl-54" value="" style="rounded=0;whiteSpace=wrap;html=1;fontSize=14;fillColor=#FFFFFF;strokeColor=#4D4D4D;dashed=1;" parent="1" vertex="1">
          <mxGeometry x="460" y="120" width="190" height="780" as="geometry"/>
        </mxCell>
        <mxCell id="Ra1Ot_p0R3nydMWMHYjl-1" value="结算业务流程" style="rounded=0;whiteSpace=wrap;html=1;fontSize=15;align=center;fillColor=#CC0000;fontColor=#FFFFFF;" parent="1" vertex="1">
          <mxGeometry x="80" y="40" width="760" height="40" as="geometry"/>
        </mxCell>
        <mxCell id="Ra1Ot_p0R3nydMWMHYjl-2" value="企业货主" style="rounded=0;whiteSpace=wrap;html=1;fontSize=14;fillColor=#999999;" parent="1" vertex="1">
          <mxGeometry x="80" y="80" width="190" height="40" as="geometry"/>
        </mxCell>
        <mxCell id="Ra1Ot_p0R3nydMWMHYjl-5" value="平台财务员" style="rounded=0;whiteSpace=wrap;html=1;fontSize=14;fillColor=#999999;" parent="1" vertex="1">
          <mxGeometry x="270" y="80" width="190" height="40" as="geometry"/>
        </mxCell>
        <mxCell id="Ra1Ot_p0R3nydMWMHYjl-6" value="经纪人/司机" style="rounded=0;whiteSpace=wrap;html=1;fontSize=14;fillColor=#999999;" parent="1" vertex="1">
          <mxGeometry x="460" y="80" width="190" height="40" as="geometry"/>
        </mxCell>
        <mxCell id="Ra1Ot_p0R3nydMWMHYjl-9" value="" style="edgeStyle=orthogonalEdgeStyle;rounded=0;orthogonalLoop=1;jettySize=auto;html=1;fontSize=14;" parent="1" source="Ra1Ot_p0R3nydMWMHYjl-7" edge="1">
          <mxGeometry relative="1" as="geometry">
            <mxPoint x="317.5" y="267" as="targetPoint"/>
          </mxGeometry>
        </mxCell>
        <mxCell id="Ra1Ot_p0R3nydMWMHYjl-7" value="结算单" style="rounded=1;whiteSpace=wrap;html=1;fontSize=14;align=center;" parent="1" vertex="1">
          <mxGeometry x="127.5" y="247" width="95" height="40" as="geometry"/>
        </mxCell>
        <mxCell id="Ra1Ot_p0R3nydMWMHYjl-20" value="" style="edgeStyle=orthogonalEdgeStyle;rounded=0;orthogonalLoop=1;jettySize=auto;html=1;fontSize=14;entryX=1;entryY=0.5;entryDx=0;entryDy=0;" parent="1" source="Ra1Ot_p0R3nydMWMHYjl-10" target="Ra1Ot_p0R3nydMWMHYjl-17" edge="1">
          <mxGeometry relative="1" as="geometry">
            <mxPoint x="364.5" y="162" as="targetPoint"/>
            <Array as="points">
              <mxPoint x="365" y="184"/>
            </Array>
          </mxGeometry>
        </mxCell>
        <mxCell id="Ra1Ot_p0R3nydMWMHYjl-24" value="不通过" style="text;html=1;align=center;verticalAlign=middle;resizable=0;points=[];;labelBackgroundColor=#ffffff;fontSize=14;" parent="Ra1Ot_p0R3nydMWMHYjl-20" vertex="1" connectable="0">
          <mxGeometry x="0.1811" y="3" relative="1" as="geometry">
            <mxPoint x="-5.5" y="-7" as="offset"/>
          </mxGeometry>
        </mxCell>
        <mxCell id="oFnmI1OdnGixcxwp1kZO-5" value="" style="edgeStyle=orthogonalEdgeStyle;rounded=0;orthogonalLoop=1;jettySize=auto;html=1;endArrow=classic;endFill=1;fontSize=14;" edge="1" parent="1" source="Ra1Ot_p0R3nydMWMHYjl-10" target="71ZueDIA5eY5wavkLqYh-7">
          <mxGeometry relative="1" as="geometry"/>
        </mxCell>
        <mxCell id="Ra1Ot_p0R3nydMWMHYjl-10" value="结算单审核" style="rhombus;whiteSpace=wrap;html=1;glass=0;comic=0;fontSize=14;align=center;" parent="1" vertex="1">
          <mxGeometry x="319" y="242" width="91" height="50" as="geometry"/>
        </mxCell>
        <mxCell id="Ra1Ot_p0R3nydMWMHYjl-26" value="" style="edgeStyle=orthogonalEdgeStyle;rounded=0;orthogonalLoop=1;jettySize=auto;html=1;fontSize=14;" parent="1" source="Ra1Ot_p0R3nydMWMHYjl-14" target="Ra1Ot_p0R3nydMWMHYjl-25" edge="1">
          <mxGeometry relative="1" as="geometry"/>
        </mxCell>
        <mxCell id="Ra1Ot_p0R3nydMWMHYjl-14" value="在线支付" style="rounded=1;whiteSpace=wrap;html=1;fontSize=14;align=center;" parent="1" vertex="1">
          <mxGeometry x="127.5" y="488" width="95" height="40" as="geometry"/>
        </mxCell>
        <mxCell id="Ra1Ot_p0R3nydMWMHYjl-29" value="" style="edgeStyle=orthogonalEdgeStyle;rounded=0;orthogonalLoop=1;jettySize=auto;html=1;fontSize=14;" parent="1" source="Ra1Ot_p0R3nydMWMHYjl-25" target="Ra1Ot_p0R3nydMWMHYjl-28" edge="1">
          <mxGeometry relative="1" as="geometry"/>
        </mxCell>
        <mxCell id="Ra1Ot_p0R3nydMWMHYjl-33" value="" style="edgeStyle=orthogonalEdgeStyle;rounded=0;orthogonalLoop=1;jettySize=auto;html=1;fontSize=14;" parent="1" source="Ra1Ot_p0R3nydMWMHYjl-25" target="Ra1Ot_p0R3nydMWMHYjl-32" edge="1">
          <mxGeometry relative="1" as="geometry">
            <Array as="points">
              <mxPoint x="365" y="558"/>
              <mxPoint x="175" y="558"/>
            </Array>
          </mxGeometry>
        </mxCell>
        <mxCell id="Ra1Ot_p0R3nydMWMHYjl-35" value="同步银行支付结果" style="text;html=1;align=center;verticalAlign=middle;resizable=0;points=[];;labelBackgroundColor=#ffffff;fontSize=14;" parent="Ra1Ot_p0R3nydMWMHYjl-33" vertex="1" connectable="0">
          <mxGeometry x="-0.0909" y="-1" relative="1" as="geometry">
            <mxPoint as="offset"/>
          </mxGeometry>
        </mxCell>
        <mxCell id="Ra1Ot_p0R3nydMWMHYjl-25" value="平台公账" style="rounded=1;whiteSpace=wrap;html=1;fontSize=14;align=center;" parent="1" vertex="1">
          <mxGeometry x="317.5" y="488" width="95" height="40" as="geometry"/>
        </mxCell>
        <mxCell id="Ra1Ot_p0R3nydMWMHYjl-37" value="" style="edgeStyle=orthogonalEdgeStyle;rounded=0;orthogonalLoop=1;jettySize=auto;html=1;fontSize=14;" parent="1" source="Ra1Ot_p0R3nydMWMHYjl-32" edge="1">
          <mxGeometry relative="1" as="geometry">
            <mxPoint x="317.5" y="611" as="targetPoint"/>
          </mxGeometry>
        </mxCell>
        <mxCell id="Ra1Ot_p0R3nydMWMHYjl-32" value="申请开票" style="rounded=1;whiteSpace=wrap;html=1;fontSize=14;align=center;" parent="1" vertex="1">
          <mxGeometry x="127.5" y="591" width="95" height="40" as="geometry"/>
        </mxCell>
        <mxCell id="Ra1Ot_p0R3nydMWMHYjl-31" value="" style="edgeStyle=orthogonalEdgeStyle;rounded=0;orthogonalLoop=1;jettySize=auto;html=1;fontSize=14;" parent="1" source="Ra1Ot_p0R3nydMWMHYjl-28" target="Ra1Ot_p0R3nydMWMHYjl-30" edge="1">
          <mxGeometry relative="1" as="geometry"/>
        </mxCell>
        <mxCell id="Ra1Ot_p0R3nydMWMHYjl-28" value="个人账户" style="rounded=1;whiteSpace=wrap;html=1;fontSize=14;align=center;" parent="1" vertex="1">
          <mxGeometry x="507.5" y="488" width="95" height="40" as="geometry"/>
        </mxCell>
        <mxCell id="Ra1Ot_p0R3nydMWMHYjl-30" value="提现" style="rounded=1;whiteSpace=wrap;html=1;fontSize=14;align=center;" parent="1" vertex="1">
          <mxGeometry x="507.5" y="588" width="95" height="40" as="geometry"/>
        </mxCell>
        <mxCell id="Ra1Ot_p0R3nydMWMHYjl-18" value="" style="edgeStyle=orthogonalEdgeStyle;rounded=0;orthogonalLoop=1;jettySize=auto;html=1;fontSize=14;" parent="1" source="Ra1Ot_p0R3nydMWMHYjl-17" target="Ra1Ot_p0R3nydMWMHYjl-7" edge="1">
          <mxGeometry relative="1" as="geometry"/>
        </mxCell>
        <mxCell id="Ra1Ot_p0R3nydMWMHYjl-17" value="运单" style="rounded=1;whiteSpace=wrap;html=1;fontSize=14;align=center;" parent="1" vertex="1">
          <mxGeometry x="127.5" y="163.5" width="95" height="40" as="geometry"/>
        </mxCell>
        <mxCell id="Ra1Ot_p0R3nydMWMHYjl-44" value="" style="edgeStyle=orthogonalEdgeStyle;rounded=0;orthogonalLoop=1;jettySize=auto;html=1;fontSize=14;entryX=0.5;entryY=1;entryDx=0;entryDy=0;" parent="1" source="Ra1Ot_p0R3nydMWMHYjl-40" target="Ra1Ot_p0R3nydMWMHYjl-32" edge="1">
          <mxGeometry relative="1" as="geometry">
            <mxPoint x="365" y="716" as="targetPoint"/>
            <Array as="points">
              <mxPoint x="365" y="656"/>
              <mxPoint x="175" y="656"/>
            </Array>
          </mxGeometry>
        </mxCell>
        <mxCell id="Ra1Ot_p0R3nydMWMHYjl-46" value="不通过" style="text;html=1;align=center;verticalAlign=middle;resizable=0;points=[];;labelBackgroundColor=#ffffff;fontSize=14;" parent="Ra1Ot_p0R3nydMWMHYjl-44" vertex="1" connectable="0">
          <mxGeometry x="-0.166" y="-2" relative="1" as="geometry">
            <mxPoint x="-7" y="-2" as="offset"/>
          </mxGeometry>
        </mxCell>
        <mxCell id="oFnmI1OdnGixcxwp1kZO-1" style="edgeStyle=orthogonalEdgeStyle;rounded=0;orthogonalLoop=1;jettySize=auto;html=1;entryX=0;entryY=0.5;entryDx=0;entryDy=0;endArrow=classic;endFill=1;" edge="1" parent="1">
          <mxGeometry relative="1" as="geometry">
            <mxPoint x="365" y="642" as="sourcePoint"/>
            <mxPoint x="698" y="514" as="targetPoint"/>
            <Array as="points">
              <mxPoint x="365" y="656"/>
              <mxPoint x="630" y="656"/>
              <mxPoint x="630" y="514"/>
            </Array>
          </mxGeometry>
        </mxCell>
        <mxCell id="oFnmI1OdnGixcxwp1kZO-2" value="&lt;font style=&quot;font-size: 14px&quot;&gt;审核通过&lt;/font&gt;" style="text;html=1;align=center;verticalAlign=middle;resizable=0;points=[];;labelBackgroundColor=#ffffff;" vertex="1" connectable="0" parent="oFnmI1OdnGixcxwp1kZO-1">
          <mxGeometry x="-0.6646" y="-1" relative="1" as="geometry">
            <mxPoint x="-3" y="-7" as="offset"/>
          </mxGeometry>
        </mxCell>
        <mxCell id="Ra1Ot_p0R3nydMWMHYjl-40" value="信息审核" style="rhombus;whiteSpace=wrap;html=1;glass=0;comic=0;fontSize=14;align=center;" parent="1" vertex="1">
          <mxGeometry x="319.5" y="586" width="91" height="50" as="geometry"/>
        </mxCell>
        <mxCell id="Ra1Ot_p0R3nydMWMHYjl-51" value="" style="edgeStyle=orthogonalEdgeStyle;rounded=0;orthogonalLoop=1;jettySize=auto;html=1;fontSize=14;" parent="1" source="Ra1Ot_p0R3nydMWMHYjl-48" target="Ra1Ot_p0R3nydMWMHYjl-50" edge="1">
          <mxGeometry relative="1" as="geometry"/>
        </mxCell>
        <mxCell id="Ra1Ot_p0R3nydMWMHYjl-48" value="开票信息" style="rounded=1;whiteSpace=wrap;html=1;fontSize=14;align=center;" parent="1" vertex="1">
          <mxGeometry x="317" y="694" width="95" height="40" as="geometry"/>
        </mxCell>
        <mxCell id="Ra1Ot_p0R3nydMWMHYjl-50" value="发票邮寄" style="rounded=1;whiteSpace=wrap;html=1;fontSize=14;align=center;" parent="1" vertex="1">
          <mxGeometry x="317" y="792" width="95" height="40" as="geometry"/>
        </mxCell>
        <mxCell id="71ZueDIA5eY5wavkLqYh-6" value="财辅系统" style="rounded=0;whiteSpace=wrap;html=1;fontSize=14;fillColor=#999999;" parent="1" vertex="1">
          <mxGeometry x="650" y="80" width="190" height="40" as="geometry"/>
        </mxCell>
        <mxCell id="71ZueDIA5eY5wavkLqYh-49" style="edgeStyle=orthogonalEdgeStyle;rounded=0;orthogonalLoop=1;jettySize=auto;html=1;entryX=0;entryY=0.5;entryDx=0;entryDy=0;endArrow=classic;endFill=1;" parent="1" source="71ZueDIA5eY5wavkLqYh-7" target="71ZueDIA5eY5wavkLqYh-46" edge="1">
          <mxGeometry relative="1" as="geometry"/>
        </mxCell>
        <mxCell id="71ZueDIA5eY5wavkLqYh-7" value="应收账单" style="rounded=1;whiteSpace=wrap;html=1;fontSize=14;align=center;fillColor=#d5e8d4;strokeColor=#82b366;" parent="1" vertex="1">
          <mxGeometry x="317" y="360" width="95" height="40" as="geometry"/>
        </mxCell>
        <mxCell id="71ZueDIA5eY5wavkLqYh-50" style="edgeStyle=orthogonalEdgeStyle;rounded=0;orthogonalLoop=1;jettySize=auto;html=1;entryX=0;entryY=0.5;entryDx=0;entryDy=0;endArrow=classic;endFill=1;" parent="1" source="71ZueDIA5eY5wavkLqYh-8" target="71ZueDIA5eY5wavkLqYh-47" edge="1">
          <mxGeometry relative="1" as="geometry"/>
        </mxCell>
        <mxCell id="71ZueDIA5eY5wavkLqYh-8" value="应付账单&lt;br&gt;" style="rounded=1;whiteSpace=wrap;html=1;fontSize=14;align=center;fillColor=#f8cecc;strokeColor=#b85450;" parent="1" vertex="1">
          <mxGeometry x="317.5" y="400" width="95" height="40" as="geometry"/>
        </mxCell>
        <mxCell id="71ZueDIA5eY5wavkLqYh-45" style="edgeStyle=orthogonalEdgeStyle;rounded=0;orthogonalLoop=1;jettySize=auto;html=1;entryX=0.5;entryY=0;entryDx=0;entryDy=0;endArrow=classic;endFill=1;" parent="1" source="71ZueDIA5eY5wavkLqYh-9" target="71ZueDIA5eY5wavkLqYh-42" edge="1">
          <mxGeometry relative="1" as="geometry"/>
        </mxCell>
        <mxCell id="71ZueDIA5eY5wavkLqYh-9" value="税控系统" style="rounded=1;whiteSpace=wrap;html=1;fontSize=14;align=center;" parent="1" vertex="1">
          <mxGeometry x="697.5" y="488" width="95" height="40" as="geometry"/>
        </mxCell>
        <mxCell id="71ZueDIA5eY5wavkLqYh-29" style="edgeStyle=orthogonalEdgeStyle;rounded=0;orthogonalLoop=1;jettySize=auto;html=1;entryX=0.5;entryY=0;entryDx=0;entryDy=0;endArrow=classic;endFill=1;" parent="1" source="71ZueDIA5eY5wavkLqYh-22" target="Ra1Ot_p0R3nydMWMHYjl-14" edge="1">
          <mxGeometry relative="1" as="geometry"/>
        </mxCell>
        <mxCell id="71ZueDIA5eY5wavkLqYh-22" value="" style="shape=mxgraph.bpmn.shape;html=1;verticalLabelPosition=bottom;labelBackgroundColor=#ffffff;verticalAlign=top;perimeter=rhombusPerimeter;background=gateway;outline=none;symbol=parallelGw;rounded=1;shadow=0;strokeWidth=1;fontFamily=Verdana;fontSize=14;align=center;" parent="1" vertex="1">
          <mxGeometry x="349.5" y="310.00000000000006" width="30" height="30" as="geometry"/>
        </mxCell>
        <mxCell id="71ZueDIA5eY5wavkLqYh-55" value="" style="edgeStyle=orthogonalEdgeStyle;rounded=0;orthogonalLoop=1;jettySize=auto;html=1;endArrow=classic;endFill=1;entryX=1;entryY=0.5;entryDx=0;entryDy=0;" parent="1" source="71ZueDIA5eY5wavkLqYh-42" target="Ra1Ot_p0R3nydMWMHYjl-48" edge="1">
          <mxGeometry relative="1" as="geometry">
            <mxPoint x="745" y="798" as="targetPoint"/>
            <Array as="points">
              <mxPoint x="745" y="714"/>
            </Array>
          </mxGeometry>
        </mxCell>
        <mxCell id="71ZueDIA5eY5wavkLqYh-57" value="同步开票信息" style="text;html=1;align=center;verticalAlign=middle;resizable=0;points=[];;labelBackgroundColor=#ffffff;fontSize=14;" parent="71ZueDIA5eY5wavkLqYh-55" vertex="1" connectable="0">
          <mxGeometry x="0.1968" y="2" relative="1" as="geometry">
            <mxPoint as="offset"/>
          </mxGeometry>
        </mxCell>
        <mxCell id="71ZueDIA5eY5wavkLqYh-42" value="开票" style="rounded=1;whiteSpace=wrap;html=1;fontSize=14;align=center;" parent="1" vertex="1">
          <mxGeometry x="697.5" y="591" width="95" height="40" as="geometry"/>
        </mxCell>
        <mxCell id="71ZueDIA5eY5wavkLqYh-46" value="应收账单" style="rounded=1;whiteSpace=wrap;html=1;fontSize=14;align=center;fillColor=#d5e8d4;strokeColor=#82b366;" parent="1" vertex="1">
          <mxGeometry x="697.5" y="360" width="95" height="40" as="geometry"/>
        </mxCell>
        <mxCell id="71ZueDIA5eY5wavkLqYh-56" style="edgeStyle=orthogonalEdgeStyle;rounded=0;orthogonalLoop=1;jettySize=auto;html=1;entryX=0.5;entryY=0;entryDx=0;entryDy=0;endArrow=classic;endFill=1;" parent="1" source="71ZueDIA5eY5wavkLqYh-47" target="71ZueDIA5eY5wavkLqYh-9" edge="1">
          <mxGeometry relative="1" as="geometry"/>
        </mxCell>
        <mxCell id="71ZueDIA5eY5wavkLqYh-47" value="应付账单" style="rounded=1;whiteSpace=wrap;html=1;fontSize=14;align=center;fillColor=#f8cecc;strokeColor=#b85450;" parent="1" vertex="1">
          <mxGeometry x="697.5" y="400" width="95" height="40" as="geometry"/>
        </mxCell>
      </root>
    </mxGraphModel>
  </diagram>
</mxfile>
